<svg width="33" height="59" viewBox="0 0 33 59" fill="none" xmlns="http://www.w3.org/2000/svg">
<path opacity="0.995667" d="M4.50561 25.3861C6.4417 25.3861 8.01121 23.854 8.01121 21.964C8.01121 20.074 6.4417 18.5419 4.50561 18.5419C2.56952 18.5419 1 20.074 1 21.964C1 23.854 2.56952 25.3861 4.50561 25.3861Z" fill="#E60516" stroke="black" stroke-width="0.7"/>
<path opacity="0.995667" d="M8.69139 34.6997C10.6275 34.6997 12.197 33.1676 12.197 31.2776C12.197 29.3876 10.6275 27.8555 8.69139 27.8555C6.7553 27.8555 5.18579 29.3876 5.18579 31.2776C5.18579 33.1676 6.7553 34.6997 8.69139 34.6997Z" fill="#E60516" stroke="black" stroke-width="0.7"/>
<path opacity="0.995667" d="M4.52294 44.4654C6.45903 44.4654 8.02855 42.9332 8.02855 41.0432C8.02855 39.1532 6.45903 37.6211 4.52294 37.6211C2.58685 37.6211 1.01733 39.1532 1.01733 41.0432C1.01733 42.9332 2.58685 44.4654 4.52294 44.4654Z" fill="#E60516" stroke="black" stroke-width="0.7"/>
<path opacity="0.995667" d="M28.699 31.5608C30.635 31.5608 32.2046 30.0287 32.2046 28.1387C32.2046 26.2487 30.635 24.7166 28.699 24.7166C26.7629 24.7166 25.1934 26.2487 25.1934 28.1387C25.1934 30.0287 26.7629 31.5608 28.699 31.5608Z" fill="#E60516" stroke="black" stroke-width="0.7"/>
<path opacity="0.995667" d="M17.385 7.84427C19.3211 7.84427 20.8906 6.31213 20.8906 4.42214C20.8906 2.53215 19.3211 1 17.385 1C15.4489 1 13.8794 2.53215 13.8794 4.42214C13.8794 6.31213 15.4489 7.84427 17.385 7.84427Z" fill="#E60516" stroke="black" stroke-width="0.7"/>
<path opacity="0.995667" d="M17.2661 58.4163C19.2022 58.4163 20.7717 56.8842 20.7717 54.9942C20.7717 53.1042 19.2022 51.572 17.2661 51.572C15.33 51.572 13.7605 53.1042 13.7605 54.9942C13.7605 56.8842 15.33 58.4163 17.2661 58.4163Z" fill="#E60516" stroke="black" stroke-width="0.7"/>
<path d="M3.32666 10.7839C3.32666 10.7839 27.9802 28.5464 4.90625 50.5777" stroke="black" stroke-width="2"/>
<path d="M14.1697 28.3712L25.1262 28.2549" stroke="black" stroke-width="0.7"/>
<path d="M7.26221 13.9552L14.8841 6.86353" stroke="black" stroke-width="0.7"/>
<path d="M8.92944 46.6236L15.1223 52.4365" stroke="black" stroke-width="0.7"/>
</svg>
